<svg xmlns="http://www.w3.org/2000/svg" width="117.894" height="96.551" viewBox="0 0 117.894 96.551"><defs><style>.a{fill:#f8f8f8;stroke:#f8f8f8;stroke-width:4px;}</style></defs><g transform="translate(2 2)"><g transform="translate(16.86 16.95)"><g transform="translate(0 0)"><path class="a" d="M155.285,181.044V124.1a.847.847,0,0,0-.9-.9H76.1a.847.847,0,0,0-.9.9v56.858a.847.847,0,0,0,.9.9h78.381C154.926,181.851,155.375,181.492,155.285,181.044Zm-1.794-.986h-76.5V124.994h76.5Z" transform="translate(-75.2 -123.2)"/></g></g><g transform="translate(25.828 25.828)"><path class="a" d="M176.631,162.8h-3.587a.9.9,0,1,0,0,1.794h2.69v37.4H116.994v-37.4h42.688a.9.9,0,0,0,0-1.794H116.1a.847.847,0,0,0-.9.9v39.1a.847.847,0,0,0,.9.9h60.445a.976.976,0,0,0,.987-.807V163.7A.847.847,0,0,0,176.631,162.8Z" transform="translate(-115.2 -162.8)"/></g><g transform="translate(95.241 0)"><path class="a" d="M425.7,47.6a.847.847,0,0,0-.9.9V60.962a.847.847,0,0,0,.9.9.964.964,0,0,0,.9-.9V48.5A.847.847,0,0,0,425.7,47.6Z" transform="translate(-424.8 -47.6)"/></g><g transform="translate(16.86 0)"><path class="a" d="M76.1,47.6a.847.847,0,0,0-.9.9V60.962a.847.847,0,0,0,.9.9.9.9,0,0,0,.9-.9V48.5A.847.847,0,0,0,76.1,47.6Z" transform="translate(-75.2 -47.6)"/></g><g transform="translate(95.241 78.291)"><path class="a" d="M425.7,396.8a.847.847,0,0,0-.9.9v12.466a.847.847,0,0,0,.9.9.964.964,0,0,0,.9-.9V397.7A.847.847,0,0,0,425.7,396.8Z" transform="translate(-424.8 -396.8)"/></g><g transform="translate(99.635 73.807)"><path class="a" d="M457.762,376.8H445.3a.9.9,0,1,0,0,1.794h12.466a.9.9,0,1,0,0-1.794Z" transform="translate(-444.4 -376.8)"/></g><g transform="translate(0 73.807)"><path class="a" d="M13.362,376.8H.9a.9.9,0,1,0,0,1.794H13.362a.9.9,0,0,0,.9-.9A.847.847,0,0,0,13.362,376.8Z" transform="translate(0 -376.8)"/></g><g transform="translate(99.635 16.95)"><g transform="translate(0 0)"><path class="a" d="M457.762,123.2H445.3a.9.9,0,0,0,0,1.794h12.466a.9.9,0,1,0,0-1.794Z" transform="translate(-444.4 -123.2)"/></g></g><g transform="translate(0 16.95)"><g transform="translate(0 0)"><path class="a" d="M13.362,123.2H.9a.9.9,0,0,0,0,1.794H13.362a.9.9,0,0,0,.9-.9A.847.847,0,0,0,13.362,123.2Z" transform="translate(0 -123.2)"/></g></g><g transform="translate(16.86 78.291)"><path class="a" d="M76.1,396.8a.847.847,0,0,0-.9.9v12.466a.847.847,0,0,0,.9.9.9.9,0,0,0,.9-.9V397.7A.847.847,0,0,0,76.1,396.8Z" transform="translate(-75.2 -396.8)"/></g></g></svg>