<svg xmlns="http://www.w3.org/2000/svg" width="250" height="67.319" viewBox="0 0 354.125 67.319"><defs><style>.a{fill:none;}.b,.d{fill:#112d46;}.b{font-size:20px;font-family:Lato-Regular, Lato;letter-spacing:0.125em;}.c,.d{stroke:none;}</style></defs><g class="a"><path class="c" d="M39.278,0H314.847c21.693,0,39.278,15.07,39.278,33.659S336.54,67.319,314.847,67.319H39.278C17.585,67.319,0,52.249,0,33.659S17.585,0,39.278,0Z"/><path class="d" d="M 39.27801513671875 2.000015258789063 C 34.2086181640625 2.000015258789063 29.29400634765625 2.849693298339844 24.67074584960938 4.525424957275391 C 20.22109985351563 6.138240814208984 16.22909545898438 8.443561553955078 12.80569458007813 11.37728881835938 C 9.404693603515625 14.29174041748047 6.738189697265625 17.67828750610352 4.880096435546875 21.44283294677734 C 2.969024658203125 25.31483459472656 2.000030517578125 29.42510604858398 2.000030517578125 33.659423828125 C 2.000030517578125 37.89374160766602 2.969024658203125 42.00401306152344 4.880096435546875 45.87601470947266 C 6.738189697265625 49.64056015014648 9.404693603515625 53.02710723876953 12.80569458007813 55.94155883789063 C 16.22909545898438 58.87528610229492 20.22109985351563 61.18060684204102 24.67074584960938 62.79342269897461 C 29.29400634765625 64.46915435791016 34.2086181640625 65.31883239746094 39.27801513671875 65.31883239746094 L 314.8474731445313 65.31883239746094 C 319.9168701171875 65.31883239746094 324.8314819335938 64.46915435791016 329.4547119140625 62.79342269897461 C 333.9043884277344 61.18060684204102 337.8963317871094 58.87528610229492 341.3197937011719 55.94155883789063 C 344.7207336425781 53.02710723876953 347.3872985839844 49.64056015014648 349.2453918457031 45.87601470947266 C 351.1564636230469 42.00401306152344 352.1254577636719 37.89374160766602 352.1254577636719 33.659423828125 C 352.1254577636719 29.42510604858398 351.1564636230469 25.31483459472656 349.2453918457031 21.44283294677734 C 347.3872985839844 17.67828750610352 344.7207336425781 14.29174041748047 341.3197937011719 11.37728881835938 C 337.8963317871094 8.443561553955078 333.9043884277344 6.138240814208984 329.4547119140625 4.525424957275391 C 324.8314819335938 2.849693298339844 319.9168701171875 2.000015258789063 314.8474731445313 2.000015258789063 L 39.27801513671875 2.000015258789063 M 39.27801513671875 1.52587890625e-05 L 314.8474731445313 1.52587890625e-05 C 336.5401000976563 1.52587890625e-05 354.1254577636719 15.06983184814453 354.1254577636719 33.659423828125 C 354.1254577636719 52.24901580810547 336.5401000976563 67.31883239746094 314.8474731445313 67.31883239746094 L 39.27801513671875 67.31883239746094 C 17.5853271484375 67.31883239746094 3.0517578125e-05 52.24901580810547 3.0517578125e-05 33.659423828125 C 3.0517578125e-05 15.06983184814453 17.5853271484375 1.52587890625e-05 39.27801513671875 1.52587890625e-05 Z"/></g><text class="b" transform="translate(84 42)"><tspan x="0" y="0">START FRAMING</tspan></text></svg>