<svg xmlns="http://www.w3.org/2000/svg" xmlns:xlink="http://www.w3.org/1999/xlink" width="596.622" height="695.97" viewBox="0 0 596.622 695.97"><defs><style>.a,.d{fill:#9d9d9d;}.b,.f{fill:none;}.b{stroke:#9d9d9d;stroke-width:8px;}.c{fill:#f8f8f8;stroke:#f8f8f8;stroke-width:4px;}.d{font-size:40px;font-family:Lato-Bold, Lato;font-weight:700;letter-spacing:0.01em;}.e{stroke:none;}.g{filter:url(#a);}</style><filter id="a" x="0" y="147.521" width="548.448" height="548.448" filterUnits="userSpaceOnUse"><feOffset dy="5" input="SourceAlpha"/><feGaussianBlur stdDeviation="10" result="b"/><feFlood flood-color="#9d9d9d"/><feComposite operator="in" in2="b"/><feComposite in="SourceGraphic"/></filter></defs><g transform="translate(-117 -3212)"><g class="g" transform="matrix(1, 0, 0, 1, 117, 3212)"><path class="a" d="M14.324,14.324,345.385,0,331.061,331.061,0,345.385Z" transform="translate(274.22 172.52) rotate(45)"/></g><path class="b" d="M-1813.75,8434.206l249.429,230.144,249.43-230.144" transform="translate(1955.75 -4774.199)"/><path class="b" d="M-1813.75,8664.35l249.429-230.144,249.43,230.144" transform="translate(1955.75 -5064.497)"/><g transform="translate(334.686 3533)"><g transform="translate(16.86 16.95)"><g transform="translate(0 0)"><path class="c" d="M155.285,181.044V124.1a.847.847,0,0,0-.9-.9H76.1a.847.847,0,0,0-.9.9v56.858a.847.847,0,0,0,.9.9h78.381C154.926,181.851,155.375,181.492,155.285,181.044Zm-1.794-.986h-76.5V124.994h76.5Z" transform="translate(-75.2 -123.2)"/></g></g><g transform="translate(25.828 25.828)"><path class="c" d="M176.631,162.8h-3.587a.9.9,0,1,0,0,1.794h2.69v37.4H116.994v-37.4h42.688a.9.9,0,0,0,0-1.794H116.1a.847.847,0,0,0-.9.9v39.1a.847.847,0,0,0,.9.9h60.445a.976.976,0,0,0,.987-.807V163.7A.847.847,0,0,0,176.631,162.8Z" transform="translate(-115.2 -162.8)"/></g><g transform="translate(95.241 0)"><path class="c" d="M425.7,47.6a.847.847,0,0,0-.9.9V60.962a.847.847,0,0,0,.9.9.964.964,0,0,0,.9-.9V48.5A.847.847,0,0,0,425.7,47.6Z" transform="translate(-424.8 -47.6)"/></g><g transform="translate(16.86 0)"><path class="c" d="M76.1,47.6a.847.847,0,0,0-.9.9V60.962a.847.847,0,0,0,.9.9.9.9,0,0,0,.9-.9V48.5A.847.847,0,0,0,76.1,47.6Z" transform="translate(-75.2 -47.6)"/></g><g transform="translate(95.241 78.291)"><path class="c" d="M425.7,396.8a.847.847,0,0,0-.9.9v12.466a.847.847,0,0,0,.9.9.964.964,0,0,0,.9-.9V397.7A.847.847,0,0,0,425.7,396.8Z" transform="translate(-424.8 -396.8)"/></g><g transform="translate(99.635 73.807)"><path class="c" d="M457.762,376.8H445.3a.9.9,0,1,0,0,1.794h12.466a.9.9,0,1,0,0-1.794Z" transform="translate(-444.4 -376.8)"/></g><g transform="translate(0 73.807)"><path class="c" d="M13.362,376.8H.9a.9.9,0,1,0,0,1.794H13.362a.9.9,0,0,0,.9-.9A.847.847,0,0,0,13.362,376.8Z" transform="translate(0 -376.8)"/></g><g transform="translate(99.635 16.95)"><g transform="translate(0 0)"><path class="c" d="M457.762,123.2H445.3a.9.9,0,0,0,0,1.794h12.466a.9.9,0,1,0,0-1.794Z" transform="translate(-444.4 -123.2)"/></g></g><g transform="translate(0 16.95)"><g transform="translate(0 0)"><path class="c" d="M13.362,123.2H.9a.9.9,0,0,0,0,1.794H13.362a.9.9,0,0,0,.9-.9A.847.847,0,0,0,13.362,123.2Z" transform="translate(0 -123.2)"/></g></g><g transform="translate(16.86 78.291)"><path class="c" d="M76.1,396.8a.847.847,0,0,0-.9.9v12.466a.847.847,0,0,0,.9.9.9.9,0,0,0,.9-.9V397.7A.847.847,0,0,0,76.1,396.8Z" transform="translate(-75.2 -396.8)"/></g></g><g transform="translate(647.579 3596.495)"><path class="a" d="M65.436,31.495,34.612.671A2.1,2.1,0,0,0,33.1.054c-.016,0-.029-.008-.045-.008H2.12A2.063,2.063,0,0,0,.057,2.109c0,.016.008.029.008.045A2.119,2.119,0,0,0,.682,3.662L30.066,33.046.62,62.492a2.118,2.118,0,0,0,0,2.995,2.081,2.081,0,0,0,1.794.563H32.758a2.081,2.081,0,0,0,1.794-.563L65.434,34.6a2.294,2.294,0,0,0,0-3.11ZM32.127,61.924H7.177L34.494,34.607a2.294,2.294,0,0,0,0-3.113L7.173,4.171h24.96L61.007,33.046Z"/></g><g transform="translate(0 -4834)"><line class="b" y1="100" transform="translate(391.5 8109.5)"/><g class="b" transform="translate(357 8046)"><rect class="e" width="69" height="64"/><rect class="f" x="4" y="4" width="61" height="56"/></g><text class="d" transform="translate(392 8093)"><tspan x="-11.6" y="0">1</tspan></text></g></g></svg>