<svg xmlns="http://www.w3.org/2000/svg" xmlns:xlink="http://www.w3.org/1999/xlink" width="549.517" height="696.504" viewBox="0 0 549.517 696.504"><defs><style>.a,.d{fill:#605e5e;}.b,.f{fill:none;}.b{stroke:#605e5e;stroke-width:8px;}.c{fill:#f8f8f8;stroke:#f8f8f8;}.d{font-size:40px;font-family:Lato-Bold, Lato;font-weight:700;letter-spacing:0.01em;}.e{stroke:none;}.g{filter:url(#a);}</style><filter id="a" x="0" y="146.987" width="549.517" height="549.517" filterUnits="userSpaceOnUse"><feOffset dy="5" input="SourceAlpha"/><feGaussianBlur stdDeviation="10" result="b"/><feFlood flood-color="#605e5e"/><feComposite operator="in" in2="b"/><feComposite in="SourceGraphic"/></filter></defs><g transform="translate(24.608)"><g class="g" transform="matrix(1, 0, 0, 1, -24.61, 0)"><path class="a" d="M14.324,14.324,345.763-.378l-14.7,331.439L-.378,345.763Z" transform="translate(274.76 172.52) rotate(45)"/></g><path class="b" d="M-1813.75,8434.206l249.964,230.144,249.964-230.144" transform="translate(1813.75 -7986.199)"/><path class="b" d="M-1813.75,8664.35l249.964-230.144,249.964,230.144" transform="translate(1813.75 -8276.497)"/><g transform="translate(186.214 321)"><path class="c" d="M68.2,40H7.885a1.885,1.885,0,1,0,0,3.77H68.2a1.885,1.885,0,0,0,0-3.77Z" transform="translate(7.171 2.462)"/><path class="c" d="M127.658,88.583h-2.13V65.352A19.11,19.11,0,0,0,106.36,46.344H91.451V23.112A2.121,2.121,0,0,0,89.322,21H4.13A2.121,2.121,0,0,0,2,23.112V90.7a2.121,2.121,0,0,0,2.13,2.112H6.26v2.112a6.363,6.363,0,0,0,6.389,6.336H22.9a12.8,12.8,0,0,0,22.1,0H95.311a12.8,12.8,0,0,0,22.1,0H123.4a6.363,6.363,0,0,0,6.389-6.336V90.7A2.121,2.121,0,0,0,127.658,88.583Zm-6.389-23.232v4.224H102.1a2.121,2.121,0,0,1-2.13-2.112v-16.9h6.389a14.864,14.864,0,0,1,14.909,14.784ZM95.711,50.568v16.9A6.363,6.363,0,0,0,102.1,73.8h19.168V88.583h-3.859a12.8,12.8,0,0,0-22.1,0H91.451V50.568ZM45,88.583a12.928,12.928,0,0,0-6.812-5.617,12.39,12.39,0,0,0-4.237-.719A12.769,12.769,0,0,0,22.9,88.583H6.26V80.135H87.192v8.448ZM6.26,25.224H87.192V75.911H6.26Zm6.389,71.807a2.121,2.121,0,0,1-2.13-2.112V92.807H21.36a11.73,11.73,0,0,0,0,4.224Zm21.3,6.336a8.448,8.448,0,1,1,8.519-8.448A8.484,8.484,0,0,1,33.947,103.367Zm12.587-6.336a11.729,11.729,0,0,0,0-4.224H93.773a11.729,11.729,0,0,0,0,4.224Zm59.826,6.336a8.448,8.448,0,1,1,8.519-8.448A8.484,8.484,0,0,1,106.36,103.367Zm19.168-8.448a2.121,2.121,0,0,1-2.13,2.112h-4.451a11.73,11.73,0,0,0,0-4.224h6.581Z" transform="translate(-2 -21)"/></g><g transform="translate(215.393)"><line class="b" y1="100" transform="translate(34.5 63.5)"/><g transform="translate(0)"><g class="b"><rect class="e" width="69" height="64"/><rect class="f" x="4" y="4" width="61" height="56"/></g><text class="d" transform="translate(35 47)"><tspan x="-11.6" y="0">3</tspan></text></g></g></g></svg>