<svg xmlns="http://www.w3.org/2000/svg" xmlns:xlink="http://www.w3.org/1999/xlink" width="596.159" height="695.97" viewBox="0 0 596.159 695.97"><defs><style>.a,.d{fill:#112d46;}.b,.f{fill:none;}.b{stroke:#112d46;stroke-width:8px;}.c{fill:#f8f8f8;}.d{font-size:40px;font-family:Lato-Bold, Lato;font-weight:700;letter-spacing:0.01em;}.e{stroke:none;}.g{filter:url(#a);}</style><filter id="a" x="0" y="147.521" width="548.448" height="548.448" filterUnits="userSpaceOnUse"><feOffset dy="5" input="SourceAlpha"/><feGaussianBlur stdDeviation="10" result="b"/><feFlood flood-color="#112d46"/><feComposite operator="in" in2="b"/><feComposite in="SourceGraphic"/></filter></defs><g transform="translate(-686.463 -3212)"><g class="g" transform="matrix(1, 0, 0, 1, 686.46, 3212)"><path class="a" d="M14.324,14.324,345.385,0,331.061,331.061,0,345.385Z" transform="translate(274.22 172.52) rotate(45)"/></g><path class="b" d="M-1813.75,8434.206l249.429,230.144,249.43-230.144" transform="translate(2525.25 -4774.199)"/><path class="b" d="M-1813.75,8664.35l249.429-230.144,249.43,230.144" transform="translate(2524.821 -5064.497)"/><g transform="translate(907.168 3533)"><g transform="translate(0 0)"><circle class="c" cx="7.322" cy="7.322" r="7.322" transform="translate(32.848 23.288)"/><path class="c" d="M100.271,81.559a22.548,22.548,0,0,0-12.61-6V38.339a14.641,14.641,0,0,0-4.169-10.17A14.21,14.21,0,0,0,73.322,24H14.339A14.641,14.641,0,0,0,4.17,28.17,14.21,14.21,0,0,0,0,38.339V99.051a14.641,14.641,0,0,0,4.17,10.17,14.21,14.21,0,0,0,10.17,4.169H71.39a21.515,21.515,0,0,0,28.881-31.831ZM5.39,38.339a8.512,8.512,0,0,1,2.644-6.2,8.923,8.923,0,0,1,6.305-2.644H73.322a9.029,9.029,0,0,1,8.949,8.949V70.17L67.221,55.119a2.731,2.731,0,0,0-3.864,0L40.678,77.9,25.322,62.441a2.731,2.731,0,0,0-3.864,0L5.39,78.712ZM14.237,108.2V108a8.923,8.923,0,0,1-6.305-2.644A9.281,9.281,0,0,1,5.39,99.051V86.441l18-18.1L38.746,83.7a2.828,2.828,0,0,0,3.864,0l22.678-22.78L80.136,75.865l-.915.305a9.446,9.446,0,0,0-1.322.407c-.407.1-.814.305-1.22.407a3.044,3.044,0,0,0-.814.407,9.447,9.447,0,0,0-1.017.508l-1.525.915c-.305.2-.508.305-.814.508-.2.1-.305.2-.508.305a12.269,12.269,0,0,0-2.441,2.136,21.513,21.513,0,0,0-6.305,15.254,22.357,22.357,0,0,0,.508,4.475c.1.407.2.712.305,1.119.305,1.017.61,2.034,1.017,3.051v.1a18.655,18.655,0,0,0,1.322,2.441Zm82.068,0a16.087,16.087,0,0,1-22.475.2c-.407-.407-.814-.915-1.22-1.322-.305-.305-.61-.712-.915-1.017a9.657,9.657,0,0,1-1.017-1.729c-.2-.407-.407-.712-.61-1.119a8.589,8.589,0,0,1-.508-1.729c-.1-.407-.305-.915-.407-1.322a16.832,16.832,0,0,1-.305-3.254,16.323,16.323,0,0,1,4.678-11.39,15.723,15.723,0,0,1,11.39-4.678,16.323,16.323,0,0,1,11.39,4.678,15.9,15.9,0,0,1,4.678,11.39A16.265,16.265,0,0,1,96.305,108.2Z" transform="translate(0 -24)"/><path class="c" d="M309.532,265.214a3.547,3.547,0,0,0-.915-.61,2.971,2.971,0,0,0-.915-.2h-.2a2.971,2.971,0,0,0-.915.2,2.4,2.4,0,0,0-.915.61l-6.305,6.305a2.733,2.733,0,0,0,3.864,3.864l1.627-1.627v11.186a2.746,2.746,0,0,0,5.492,0V273.756l1.627,1.627a2.733,2.733,0,0,0,3.864-3.864Z" transform="translate(-222.685 -203.281)"/></g></g><g transform="translate(1216.579 3596.495)"><path class="a" d="M65.436,31.495,34.612.671A2.1,2.1,0,0,0,33.1.054c-.016,0-.029-.008-.045-.008H2.12A2.063,2.063,0,0,0,.057,2.109c0,.016.008.029.008.045A2.119,2.119,0,0,0,.682,3.662L30.066,33.046.62,62.492a2.118,2.118,0,0,0,0,2.995,2.081,2.081,0,0,0,1.794.563H32.758a2.081,2.081,0,0,0,1.794-.563L65.434,34.6a2.294,2.294,0,0,0,0-3.11ZM32.127,61.924H7.177L34.494,34.607a2.294,2.294,0,0,0,0-3.113L7.173,4.171h24.96L61.007,33.046Z"/></g><g transform="translate(569 -4834)"><line class="b" y1="100" transform="translate(391.5 8109.5)"/><g class="b" transform="translate(357 8046)"><rect class="e" width="69" height="64"/><rect class="f" x="4" y="4" width="61" height="56"/></g><text class="d" transform="translate(392 8093)"><tspan x="-11.6" y="0">2</tspan></text></g></g></svg>